<svg xmlns="http://www.w3.org/2000/svg" version="1.1" xmlns:xlink="http://www.w3.org/1999/xlink" xmlns:svgjs="http://svgjs.com/svgjs" width="1440" height="560" preserveAspectRatio="none" viewBox="0 0 1440 560"><g mask="url(&quot;#SvgjsMask28247&quot;)" fill="none"><path d="M13.66 226.73L1.02 224.72 0.2 211.94-12.45 209.93-13.27 197.15-25.91 195.14-26.73 182.36M19.58 221.34L6.93 219.33 6.11 206.55-6.53 204.54-7.35 191.76-20 189.76-20.82 176.98M25.49 215.95L12.85 213.95 12.03 201.17-0.62 199.16-1.44 186.38-14.08 184.37-14.9 171.59" stroke="rgba(6, 7, 14, 1)" stroke-width="1"></path><circle r="46.666666666666664" cx="79.67" cy="519.38" stroke="rgba(239, 62, 54, 1)" stroke-width="1.57" stroke-dasharray="4, 4"></circle><path d="M1223.26 312.29a5.6 5.6 0 1 0 1.87-11.04 5.6 5.6 0 1 0-1.87 11.04zM1225.93 296.52a5.6 5.6 0 1 0 1.87-11.05 5.6 5.6 0 1 0-1.87 11.05zM1228.6 280.74a5.6 5.6 0 1 0 1.87-11.04 5.6 5.6 0 1 0-1.87 11.04zM1231.27 264.96a5.6 5.6 0 1 0 1.87-11.04 5.6 5.6 0 1 0-1.87 11.04zM1233.7 346.51a5.6 5.6 0 1 0 1.87-11.04 5.6 5.6 0 1 0-1.87 11.04zM1236.37 330.74a5.6 5.6 0 1 0 1.87-11.05 5.6 5.6 0 1 0-1.87 11.05zM1239.04 314.96a5.6 5.6 0 1 0 1.87-11.04 5.6 5.6 0 1 0-1.87 11.04zM1241.71 299.18a5.6 5.6 0 1 0 1.87-11.04 5.6 5.6 0 1 0-1.87 11.04zM1244.14 380.73a5.6 5.6 0 1 0 1.87-11.04 5.6 5.6 0 1 0-1.87 11.04zM1246.81 364.96a5.6 5.6 0 1 0 1.87-11.05 5.6 5.6 0 1 0-1.87 11.05zM1249.48 349.18a5.6 5.6 0 1 0 1.87-11.04 5.6 5.6 0 1 0-1.87 11.04zM1252.15 333.4a5.6 5.6 0 1 0 1.87-11.04 5.6 5.6 0 1 0-1.87 11.04z" fill="rgba(239, 62, 54, 1)"></path><path d="M306.99 283.23a5.6 5.6 0 1 0 10.91 2.52 5.6 5.6 0 1 0-10.91-2.52zM322.57 286.83a5.6 5.6 0 1 0 10.92 2.53 5.6 5.6 0 1 0-10.92-2.53zM338.16 290.44a5.6 5.6 0 1 0 10.92 2.52 5.6 5.6 0 1 0-10.92-2.52zM353.75 294.04a5.6 5.6 0 1 0 10.91 2.52 5.6 5.6 0 1 0-10.91-2.52zM272.2 291.61a5.6 5.6 0 1 0 10.92 2.52 5.6 5.6 0 1 0-10.92-2.52zM287.79 295.21a5.6 5.6 0 1 0 10.91 2.52 5.6 5.6 0 1 0-10.91-2.52zM303.38 298.82a5.6 5.6 0 1 0 10.91 2.52 5.6 5.6 0 1 0-10.91-2.52zM318.97 302.42a5.6 5.6 0 1 0 10.91 2.52 5.6 5.6 0 1 0-10.91-2.52z" fill="rgba(250, 169, 22, 1)"></path><circle r="71.92775452980575" cx="985.34" cy="197.13" fill="rgba(239, 62, 54, 1)"></circle><path d="M1266.2 170.14L1278.96 171.29 1280.64 183.98 1293.39 185.13 1295.07 197.83 1307.82 198.98 1309.5 211.67M1260.67 175.91L1273.42 177.06 1275.1 189.75 1287.85 190.9 1289.53 203.6 1302.29 204.75 1303.96 217.44M1255.13 181.68L1267.88 182.83 1269.56 195.53 1282.31 196.68 1283.99 209.37 1296.75 210.52 1298.43 223.22" stroke="rgba(239, 62, 54, 1)" stroke-width="1.33" stroke-dasharray="4, 4"></path><rect width="101.4" height="101.4" clip-path="url(&quot;#SvgjsClipPath28248&quot;)" x="680.75" y="245.56" fill="url(#SvgjsPattern28249)" transform="rotate(141.51, 731.45, 296.26)"></rect><path d="M1011.58 234.37 L885.32 255.54L869.1826387617936 165.6876387617935z" fill="rgba(6, 7, 14, 1)"></path><path d="M603.18 48.41L611.33 58.29 603.48 68.4 611.62 78.29 603.77 88.4 611.91 98.28 604.06 108.4" stroke="rgba(239, 62, 54, 1)" stroke-width="2.16" stroke-dasharray="3, 2"></path><path d="M890.99 132.12a5.6 5.6 0 1 0 1.57 11.09 5.6 5.6 0 1 0-1.57-11.09zM893.24 147.97a5.6 5.6 0 1 0 1.57 11.08 5.6 5.6 0 1 0-1.57-11.08zM895.49 163.81a5.6 5.6 0 1 0 1.57 11.09 5.6 5.6 0 1 0-1.57-11.09zM897.73 179.65a5.6 5.6 0 1 0 1.58 11.09 5.6 5.6 0 1 0-1.58-11.09zM870.65 102.69a5.6 5.6 0 1 0 1.57 11.09 5.6 5.6 0 1 0-1.57-11.09zM872.9 118.53a5.6 5.6 0 1 0 1.57 11.09 5.6 5.6 0 1 0-1.57-11.09zM875.15 134.37a5.6 5.6 0 1 0 1.57 11.09 5.6 5.6 0 1 0-1.57-11.09zM877.4 150.21a5.6 5.6 0 1 0 1.57 11.09 5.6 5.6 0 1 0-1.57-11.09zM850.31 73.26a5.6 5.6 0 1 0 1.57 11.09 5.6 5.6 0 1 0-1.57-11.09zM852.56 89.1a5.6 5.6 0 1 0 1.57 11.09 5.6 5.6 0 1 0-1.57-11.09zM854.81 104.94a5.6 5.6 0 1 0 1.57 11.09 5.6 5.6 0 1 0-1.57-11.09zM857.06 120.78a5.6 5.6 0 1 0 1.57 11.09 5.6 5.6 0 1 0-1.57-11.09z" stroke="rgba(250, 169, 22, 1)" stroke-width="1" stroke-dasharray="2, 2"></path><path d="M313.57 206.63L311.8 219.31 299.04 220.37 297.27 233.05 284.51 234.1 282.73 246.79 269.97 247.84" stroke="rgba(239, 62, 54, 1)" stroke-width="1.86" stroke-dasharray="3, 3"></path><path d="M1150.34 219.77L1140.02 212.2 1145.14 200.46 1134.81 192.89 1139.94 181.15 1129.61 173.58 1134.73 161.84" stroke="rgba(250, 169, 22, 1)" stroke-width="2.43"></path></g><defs><mask id="SvgjsMask28247"><rect width="1440" height="560" fill="#ffffff"></rect></mask><pattern x="0" y="0" width="10.14" height="10.14" patternUnits="userSpaceOnUse" id="SvgjsPattern28249"><path d="M5.07 1L5.07 9.14M1 5.07L9.14 5.07" stroke="rgba(6, 7, 14, 1)" fill="none" stroke-width="2.91"></path></pattern><clipPath id="SvgjsClipPath28248"><circle r="25.35" cx="731.45" cy="296.26"></circle></clipPath></defs></svg>